<mxfile host="Electron" agent="Mozilla/5.0 (Windows NT 10.0; Win64; x64) AppleWebKit/537.36 (KHTML, like Gecko) draw.io/27.0.2 Chrome/134.0.6998.205 Electron/35.3.0 Safari/537.36" version="27.0.2">
  <diagram name="Страница — 1" id="-i15t3Q8PS0gsLEr01g7">
    <mxGraphModel dx="2977" dy="1789" grid="1" gridSize="10" guides="1" tooltips="1" connect="1" arrows="1" fold="1" page="1" pageScale="1" pageWidth="827" pageHeight="1169" math="0" shadow="0">
      <root>
        <mxCell id="0" />
        <mxCell id="1" parent="0" />
        <mxCell id="bdCGcQ_N1s8SZvGKcMqw-1" value="&lt;b&gt;class Shop&lt;/b&gt;&lt;div&gt;(хранит все списки - складов, товаров, работников, покупателей, пунктов продаж)&lt;/div&gt;&lt;div&gt;Операции - регистрация покупателей, открытие новых складов, найм работников&lt;/div&gt;" style="rounded=0;whiteSpace=wrap;html=1;fillColor=#fff2cc;strokeColor=#d6b656;" parent="1" vertex="1">
          <mxGeometry x="1120" y="280" width="360" height="90" as="geometry" />
        </mxCell>
        <mxCell id="bdCGcQ_N1s8SZvGKcMqw-2" value="&lt;div&gt;&lt;pre style=&quot;font-family: &amp;quot;JetBrains Mono&amp;quot;, monospace;&quot;&gt;&lt;span&gt;&lt;font style=&quot;color: rgb(8, 8, 8);&quot;&gt;&lt;span style=&quot;color: rgb(0, 0, 0);&quot;&gt;List&lt;/span&gt;&amp;lt;&lt;span style=&quot;color: rgb(0, 0, 0);&quot;&gt;Warehouse&lt;/span&gt;&amp;gt; &lt;span style=&quot;color: rgb(135, 16, 148);&quot;&gt;warehouses&lt;/span&gt;;&lt;br&gt;&lt;span style=&quot;color: rgb(0, 0, 0);&quot;&gt;List&lt;/span&gt;&amp;lt;&lt;span style=&quot;color: rgb(0, 0, 0);&quot;&gt;Product&lt;/span&gt;&amp;gt; &lt;span style=&quot;color: rgb(135, 16, 148);&quot;&gt;products&lt;/span&gt;;&lt;br&gt;&lt;span style=&quot;color: rgb(0, 0, 0);&quot;&gt;List&lt;/span&gt;&amp;lt;&lt;span style=&quot;color: rgb(0, 0, 0);&quot;&gt;Worker&lt;/span&gt;&amp;gt; &lt;span style=&quot;color: rgb(135, 16, 148);&quot;&gt;workers&lt;/span&gt;;&lt;br&gt;&lt;span style=&quot;color: rgb(0, 0, 0);&quot;&gt;List&lt;/span&gt;&amp;lt;&lt;span style=&quot;color: rgb(0, 0, 0);&quot;&gt;Buyer&lt;/span&gt;&amp;gt; &lt;span style=&quot;color: rgb(135, 16, 148);&quot;&gt;buyers&lt;/span&gt;;&lt;br&gt;&lt;span style=&quot;color: rgb(0, 0, 0);&quot;&gt;List&lt;/span&gt;&amp;lt;&lt;span style=&quot;color: rgb(0, 0, 0);&quot;&gt;SalePoint&lt;/span&gt;&amp;gt; &lt;span style=&quot;color: rgb(135, 16, 148);&quot;&gt;salePoints&lt;/span&gt;;&lt;/font&gt;&lt;/span&gt;&lt;/pre&gt;&lt;/div&gt;" style="rounded=0;whiteSpace=wrap;html=1;align=left;" parent="1" vertex="1">
          <mxGeometry x="1120" y="370" width="360" height="90" as="geometry" />
        </mxCell>
        <mxCell id="bdCGcQ_N1s8SZvGKcMqw-3" value="&lt;div style=&quot;text-align: center;&quot;&gt;&lt;span style=&quot;color: light-dark(rgb(0, 0, 0), rgb(255, 255, 255)); background-color: light-dark(#ffffff, var(--ge-dark-color, #121212));&quot;&gt;&lt;font style=&quot;font-size: 10px;&quot;&gt;Методы:&lt;/font&gt;&lt;/span&gt;&lt;/div&gt;&lt;div&gt;&lt;div style=&quot;color: rgb(8, 8, 8);&quot;&gt;&lt;pre style=&quot;font-family: &amp;quot;JetBrains Mono&amp;quot;, monospace;&quot;&gt;&lt;font style=&quot;font-size: 10px; background-color: light-dark(#ffffff, var(--ge-dark-color, #121212));&quot;&gt;&lt;span style=&quot;color:#0033b3;&quot;&gt;void &lt;/span&gt;&lt;span style=&quot;color:#00627a;&quot;&gt;hireWorker(&lt;/span&gt;)-уволнение работника (изменение го активности)&lt;/font&gt;&lt;/pre&gt;&lt;pre style=&quot;font-family: &amp;quot;JetBrains Mono&amp;quot;, monospace;&quot;&gt;&lt;pre style=&quot;font-family: &amp;quot;JetBrains Mono&amp;quot;, monospace;&quot;&gt;&lt;font style=&quot;font-size: 10px; background-color: light-dark(#ffffff, var(--ge-dark-color, #121212));&quot;&gt;&lt;span style=&quot;color:#00627a;&quot;&gt;void fireWorker&lt;/span&gt;()-найм работника (изменение активности)&lt;/font&gt;&lt;/pre&gt;&lt;pre style=&quot;font-family: &amp;quot;JetBrains Mono&amp;quot;, monospace;&quot;&gt;&lt;font style=&quot;font-size: 10px; background-color: light-dark(#ffffff, var(--ge-dark-color, #121212));&quot;&gt;&lt;pre style=&quot;font-family: &amp;quot;JetBrains Mono&amp;quot;, monospace;&quot;&gt;&lt;span style=&quot;color:#0033b3;&quot;&gt;void &lt;/span&gt;&lt;span style=&quot;color:#00627a;&quot;&gt;openWarehouse&lt;/span&gt;()-открытие нового склада&lt;/pre&gt;&lt;pre style=&quot;font-family: &amp;quot;JetBrains Mono&amp;quot;, monospace;&quot;&gt;&lt;pre style=&quot;font-family: &amp;quot;JetBrains Mono&amp;quot;, monospace;&quot;&gt;&lt;span style=&quot;color:#000000;&quot;&gt;Buyer &lt;/span&gt;&lt;span style=&quot;color:#00627a;&quot;&gt;findBuyerById&lt;/span&gt;()-возвращает покупателя по id покупателя&lt;/pre&gt;&lt;pre style=&quot;font-family: &amp;quot;JetBrains Mono&amp;quot;, monospace;&quot;&gt;&lt;pre style=&quot;font-family: &amp;quot;JetBrains Mono&amp;quot;, monospace;&quot;&gt;&lt;span style=&quot;color: rgb(0, 0, 0);&quot;&gt;Buyer &lt;/span&gt;&lt;span style=&quot;color: rgb(0, 98, 122);&quot;&gt;regBuyer&lt;/span&gt;()-регистрация покупателя&lt;/pre&gt;&lt;/pre&gt;&lt;/pre&gt;&lt;/font&gt;&lt;/pre&gt;&lt;/pre&gt;&lt;/div&gt;&lt;/div&gt;" style="rounded=0;whiteSpace=wrap;html=1;align=left;" parent="1" vertex="1">
          <mxGeometry x="1120" y="460" width="360" height="160" as="geometry" />
        </mxCell>
        <mxCell id="bdCGcQ_N1s8SZvGKcMqw-4" value="&lt;b&gt;class Warehouse&lt;/b&gt;&lt;div&gt;(хранит ячейки склада)&lt;/div&gt;&lt;div&gt;Операции - добавляет новые ячейки, закрывает склад, хранит статус склада&lt;/div&gt;" style="rounded=0;whiteSpace=wrap;html=1;" parent="1" vertex="1">
          <mxGeometry x="160" y="20" width="450" height="50" as="geometry" />
        </mxCell>
        <mxCell id="bdCGcQ_N1s8SZvGKcMqw-5" value="&lt;pre style=&quot;font-family: &amp;quot;JetBrains Mono&amp;quot;, monospace;&quot;&gt;&lt;div style=&quot;background-color:#ffffff;color:#080808&quot;&gt;&lt;pre style=&quot;font-family:&#39;JetBrains Mono&#39;,monospace;font-size:9,8pt;&quot;&gt;&lt;span style=&quot;color:#0033b3;&quot;&gt;private int &lt;/span&gt;&lt;span style=&quot;color:#871094;&quot;&gt;id&lt;/span&gt;;&lt;br&gt;&lt;span style=&quot;color:#0033b3;&quot;&gt;private &lt;/span&gt;&lt;span style=&quot;color:#000000;&quot;&gt;List&lt;/span&gt;&amp;lt;&lt;span style=&quot;color:#000000;&quot;&gt;StorageCell&lt;/span&gt;&amp;gt; &lt;span style=&quot;color:#871094;&quot;&gt;cells&lt;/span&gt;;&lt;br&gt;&lt;span style=&quot;color:#0033b3;&quot;&gt;private boolean &lt;/span&gt;&lt;span style=&quot;color:#871094;&quot;&gt;isOpen&lt;/span&gt;;&lt;/pre&gt;&lt;/div&gt;&lt;/pre&gt;" style="rounded=0;whiteSpace=wrap;html=1;align=left;" parent="1" vertex="1">
          <mxGeometry x="160" y="70" width="450" height="50" as="geometry" />
        </mxCell>
        <mxCell id="bdCGcQ_N1s8SZvGKcMqw-6" value="&lt;div style=&quot;text-align: center;&quot;&gt;&lt;span style=&quot;background-color: transparent; color: light-dark(rgb(0, 0, 0), rgb(255, 255, 255));&quot;&gt;&lt;font style=&quot;font-size: 10px;&quot;&gt;Методы:&lt;/font&gt;&lt;/span&gt;&lt;/div&gt;&lt;div&gt;&lt;div style=&quot;background-color:#ffffff;color:#080808&quot;&gt;&lt;pre style=&quot;font-family:&#39;JetBrains Mono&#39;,monospace;font-size:9,8pt;&quot;&gt;&lt;pre style=&quot;font-family:&#39;JetBrains Mono&#39;,monospace;font-size:9,8pt;&quot;&gt;&lt;font style=&quot;font-size: 10px;&quot;&gt;&lt;font style=&quot;&quot;&gt;&lt;span style=&quot;color:#0033b3;&quot;&gt;void &lt;/span&gt;&lt;span style=&quot;color:#00627a;&quot;&gt;addCell&lt;/span&gt;(&lt;span style=&quot;color:#000000;&quot;&gt;StorageCell cell&lt;/span&gt;)-добавление ячейки &lt;/font&gt;к ячейкам склада (т.е. в склад)&lt;/font&gt;&lt;/pre&gt;&lt;pre style=&quot;font-family:&#39;JetBrains Mono&#39;,monospace;font-size:9,8pt;&quot;&gt;&lt;font style=&quot;font-size: 10px;&quot;&gt;&lt;div&gt;&lt;pre style=&quot;font-family:&#39;JetBrains Mono&#39;,monospace;font-size:9,8pt;&quot;&gt;&lt;span style=&quot;color:#0033b3;&quot;&gt;void &lt;/span&gt;&lt;span style=&quot;color:#00627a;&quot;&gt;closeWarehouse&lt;/span&gt;()-закрытие склада&lt;br&gt;&lt;br&gt;&lt;span style=&quot;color:#0033b3;&quot;&gt;public boolean &lt;/span&gt;&lt;span style=&quot;color:#00627a;&quot;&gt;isOpen&lt;/span&gt;()-возвращает статус склада (открыт/закрыт)&lt;/pre&gt;&lt;/div&gt;&lt;/font&gt;&lt;/pre&gt;&lt;/pre&gt;&lt;/div&gt;&lt;/div&gt;" style="rounded=0;whiteSpace=wrap;html=1;align=left;" parent="1" vertex="1">
          <mxGeometry x="160" y="120" width="450" height="110" as="geometry" />
        </mxCell>
        <mxCell id="bdCGcQ_N1s8SZvGKcMqw-7" style="edgeStyle=orthogonalEdgeStyle;rounded=0;orthogonalLoop=1;jettySize=auto;html=1;entryX=0.093;entryY=0.003;entryDx=0;entryDy=0;entryPerimeter=0;" parent="1" source="bdCGcQ_N1s8SZvGKcMqw-4" target="bdCGcQ_N1s8SZvGKcMqw-1" edge="1">
          <mxGeometry relative="1" as="geometry" />
        </mxCell>
        <mxCell id="qSePwaMuYVDX3gsaCFXp-9" style="edgeStyle=orthogonalEdgeStyle;rounded=0;orthogonalLoop=1;jettySize=auto;html=1;" edge="1" parent="1" source="qSePwaMuYVDX3gsaCFXp-4" target="bdCGcQ_N1s8SZvGKcMqw-4">
          <mxGeometry relative="1" as="geometry">
            <mxPoint x="200" y="330" as="sourcePoint" />
            <Array as="points">
              <mxPoint x="190" y="290" />
              <mxPoint x="80" y="290" />
              <mxPoint x="80" y="45" />
            </Array>
          </mxGeometry>
        </mxCell>
        <mxCell id="qSePwaMuYVDX3gsaCFXp-4" value="&lt;b&gt;class StorageCell&lt;/b&gt;&lt;div&gt;(хранит кол-во определенного товара)&lt;/div&gt;&lt;div&gt;Операции - добавление кол-ва товара&amp;nbsp;&lt;/div&gt;" style="rounded=0;whiteSpace=wrap;html=1;" vertex="1" parent="1">
          <mxGeometry x="80" y="350" width="230" height="60" as="geometry" />
        </mxCell>
        <mxCell id="qSePwaMuYVDX3gsaCFXp-5" value="&lt;pre style=&quot;font-family: &amp;quot;JetBrains Mono&amp;quot;, monospace;&quot;&gt;&lt;div style=&quot;background-color:#ffffff;color:#080808&quot;&gt;&lt;pre style=&quot;font-family:&#39;JetBrains Mono&#39;,monospace;font-size:9,8pt;&quot;&gt;&lt;span style=&quot;color:#0033b3;&quot;&gt;int &lt;/span&gt;&lt;span style=&quot;color:#871094;&quot;&gt;id&lt;/span&gt;;&lt;br&gt;&lt;span style=&quot;color:#000000;&quot;&gt;Product &lt;/span&gt;&lt;span style=&quot;color:#871094;&quot;&gt;product&lt;/span&gt;;&lt;br&gt;&lt;span style=&quot;color:#0033b3;&quot;&gt;int &lt;/span&gt;&lt;span style=&quot;color:#871094;&quot;&gt;quantity&lt;/span&gt;;&lt;br&gt;&lt;span style=&quot;color:#000000;&quot;&gt;Worker &lt;/span&gt;&lt;span style=&quot;color:#871094;&quot;&gt;worker&lt;/span&gt;;&lt;/pre&gt;&lt;/div&gt;&lt;/pre&gt;" style="rounded=0;whiteSpace=wrap;html=1;align=left;" vertex="1" parent="1">
          <mxGeometry x="80" y="410" width="230" height="70" as="geometry" />
        </mxCell>
        <mxCell id="qSePwaMuYVDX3gsaCFXp-7" value="&lt;div style=&quot;text-align: center;&quot;&gt;&lt;span style=&quot;background-color: transparent; color: light-dark(rgb(0, 0, 0), rgb(255, 255, 255));&quot;&gt;&lt;font style=&quot;font-size: 10px;&quot;&gt;Методы:&lt;/font&gt;&lt;/span&gt;&lt;/div&gt;&lt;div&gt;&lt;div style=&quot;background-color: rgb(255, 255, 255); color: rgb(8, 8, 8);&quot;&gt;&lt;pre style=&quot;text-align: center; font-family: &amp;quot;JetBrains Mono&amp;quot;, monospace;&quot;&gt;&lt;font style=&quot;font-size: 10px;&quot;&gt;&lt;span style=&quot;color: rgb(0, 51, 179);&quot;&gt;void &lt;/span&gt;&lt;span style=&quot;color: rgb(0, 98, 122);&quot;&gt;addProduct&lt;/span&gt;&lt;font color=&quot;#080808&quot;&gt;(&lt;/font&gt;&lt;font color=&quot;#0033b3&quot;&gt;)&lt;/font&gt;&lt;/font&gt;&lt;font style=&quot;font-size: 10px;&quot;&gt;-открытие нового склада&lt;/font&gt;&lt;font color=&quot;#080808&quot;&gt;&lt;br&gt;&lt;/font&gt;&lt;/pre&gt;&lt;/div&gt;&lt;/div&gt;" style="rounded=0;whiteSpace=wrap;html=1;align=left;" vertex="1" parent="1">
          <mxGeometry x="80" y="480" width="230" height="60" as="geometry" />
        </mxCell>
        <mxCell id="qSePwaMuYVDX3gsaCFXp-13" style="edgeStyle=orthogonalEdgeStyle;rounded=0;orthogonalLoop=1;jettySize=auto;html=1;exitX=0.5;exitY=0;exitDx=0;exitDy=0;" edge="1" parent="1" source="qSePwaMuYVDX3gsaCFXp-10" target="qSePwaMuYVDX3gsaCFXp-4">
          <mxGeometry relative="1" as="geometry">
            <mxPoint x="270" y="350" as="targetPoint" />
            <Array as="points">
              <mxPoint x="670" y="290" />
              <mxPoint x="270" y="290" />
            </Array>
          </mxGeometry>
        </mxCell>
        <mxCell id="qSePwaMuYVDX3gsaCFXp-17" style="edgeStyle=orthogonalEdgeStyle;rounded=0;orthogonalLoop=1;jettySize=auto;html=1;" edge="1" parent="1" source="qSePwaMuYVDX3gsaCFXp-10">
          <mxGeometry relative="1" as="geometry">
            <mxPoint x="1120" y="305" as="targetPoint" />
            <Array as="points">
              <mxPoint x="700" y="360" />
              <mxPoint x="870" y="360" />
              <mxPoint x="870" y="305" />
            </Array>
          </mxGeometry>
        </mxCell>
        <mxCell id="qSePwaMuYVDX3gsaCFXp-28" style="edgeStyle=orthogonalEdgeStyle;rounded=0;orthogonalLoop=1;jettySize=auto;html=1;" edge="1" parent="1" source="qSePwaMuYVDX3gsaCFXp-10" target="qSePwaMuYVDX3gsaCFXp-21">
          <mxGeometry relative="1" as="geometry">
            <Array as="points">
              <mxPoint x="1040" y="470" />
            </Array>
          </mxGeometry>
        </mxCell>
        <mxCell id="qSePwaMuYVDX3gsaCFXp-10" value="&lt;b&gt;class Worker&lt;/b&gt;&lt;div&gt;(хранение данных о работнике)&lt;/div&gt;&lt;div&gt;Операции - возвращает статус работника&amp;nbsp;&lt;/div&gt;" style="rounded=0;whiteSpace=wrap;html=1;" vertex="1" parent="1">
          <mxGeometry x="560" y="440" width="220" height="60" as="geometry" />
        </mxCell>
        <mxCell id="qSePwaMuYVDX3gsaCFXp-11" value="&lt;pre style=&quot;font-family: &amp;quot;JetBrains Mono&amp;quot;, monospace;&quot;&gt;&lt;div style=&quot;background-color:#ffffff;color:#080808&quot;&gt;&lt;pre style=&quot;font-family:&#39;JetBrains Mono&#39;,monospace;font-size:9,8pt;&quot;&gt;&lt;div&gt;&lt;pre style=&quot;font-family:&#39;JetBrains Mono&#39;,monospace;font-size:9,8pt;&quot;&gt;&lt;span style=&quot;color:#0033b3;&quot;&gt;int &lt;/span&gt;&lt;span style=&quot;color:#871094;&quot;&gt;id&lt;/span&gt;;&lt;br&gt;&lt;span style=&quot;color:#000000;&quot;&gt;String &lt;/span&gt;&lt;span style=&quot;color:#871094;&quot;&gt;name&lt;/span&gt;;&lt;br&gt;&lt;span style=&quot;color:#0033b3;&quot;&gt;boolean &lt;/span&gt;&lt;span style=&quot;color:#871094;&quot;&gt;activity&lt;/span&gt;;&lt;/pre&gt;&lt;/div&gt;&lt;/pre&gt;&lt;/div&gt;&lt;/pre&gt;" style="rounded=0;whiteSpace=wrap;html=1;align=left;" vertex="1" parent="1">
          <mxGeometry x="560" y="500" width="220" height="55" as="geometry" />
        </mxCell>
        <mxCell id="qSePwaMuYVDX3gsaCFXp-12" value="&lt;font style=&quot;font-size: 10px;&quot;&gt;&amp;nbsp; &amp;nbsp; &amp;nbsp; &amp;nbsp; &amp;nbsp; &amp;nbsp; &amp;nbsp; &amp;nbsp; &amp;nbsp; &amp;nbsp; &amp;nbsp; &amp;nbsp; &amp;nbsp; &amp;nbsp; &amp;nbsp; &amp;nbsp; &amp;nbsp; Методы:&lt;/font&gt;&lt;div&gt;&lt;div style=&quot;background-color:#ffffff;color:#080808&quot;&gt;&lt;pre style=&quot;font-family: &amp;quot;JetBrains Mono&amp;quot;, monospace;&quot;&gt;&lt;font style=&quot;font-size: 10px;&quot;&gt;&lt;span style=&quot;color:#0033b3;&quot;&gt;boolean &lt;/span&gt;&lt;span style=&quot;color:#00627a;&quot;&gt;workerActive&lt;/span&gt;()-возвращает&lt;/font&gt;&lt;/pre&gt;&lt;pre style=&quot;font-family: &amp;quot;JetBrains Mono&amp;quot;, monospace;&quot;&gt;&lt;font style=&quot;font-size: 10px;&quot;&gt;статус работника (уволен/ не уволен) &lt;/font&gt;&lt;/pre&gt;&lt;/div&gt;&lt;/div&gt;" style="rounded=0;whiteSpace=wrap;html=1;align=left;" vertex="1" parent="1">
          <mxGeometry x="560" y="555" width="220" height="80" as="geometry" />
        </mxCell>
        <mxCell id="qSePwaMuYVDX3gsaCFXp-19" style="edgeStyle=orthogonalEdgeStyle;rounded=0;orthogonalLoop=1;jettySize=auto;html=1;entryX=1;entryY=0.25;entryDx=0;entryDy=0;" edge="1" parent="1" source="qSePwaMuYVDX3gsaCFXp-14" target="qSePwaMuYVDX3gsaCFXp-4">
          <mxGeometry relative="1" as="geometry">
            <Array as="points">
              <mxPoint x="600" y="790" />
              <mxPoint x="430" y="790" />
              <mxPoint x="430" y="365" />
            </Array>
          </mxGeometry>
        </mxCell>
        <mxCell id="qSePwaMuYVDX3gsaCFXp-25" style="edgeStyle=orthogonalEdgeStyle;rounded=0;orthogonalLoop=1;jettySize=auto;html=1;entryX=0;entryY=0.5;entryDx=0;entryDy=0;" edge="1" parent="1" source="qSePwaMuYVDX3gsaCFXp-15" target="qSePwaMuYVDX3gsaCFXp-21">
          <mxGeometry relative="1" as="geometry">
            <Array as="points">
              <mxPoint x="920" y="723" />
              <mxPoint x="920" y="760" />
            </Array>
          </mxGeometry>
        </mxCell>
        <mxCell id="qSePwaMuYVDX3gsaCFXp-32" style="edgeStyle=orthogonalEdgeStyle;rounded=0;orthogonalLoop=1;jettySize=auto;html=1;" edge="1" parent="1" source="qSePwaMuYVDX3gsaCFXp-14" target="qSePwaMuYVDX3gsaCFXp-29">
          <mxGeometry relative="1" as="geometry">
            <mxPoint x="780" y="1060" as="targetPoint" />
            <Array as="points">
              <mxPoint x="840" y="838" />
            </Array>
          </mxGeometry>
        </mxCell>
        <mxCell id="qSePwaMuYVDX3gsaCFXp-14" value="&lt;b&gt;class Product&lt;/b&gt;&lt;div&gt;(хранение данных о товаре)&lt;span style=&quot;background-color: transparent; color: light-dark(rgb(0, 0, 0), rgb(255, 255, 255));&quot;&gt;&amp;nbsp;&lt;/span&gt;&lt;/div&gt;" style="rounded=0;whiteSpace=wrap;html=1;" vertex="1" parent="1">
          <mxGeometry x="540" y="815" width="166" height="45" as="geometry" />
        </mxCell>
        <mxCell id="qSePwaMuYVDX3gsaCFXp-24" style="edgeStyle=orthogonalEdgeStyle;rounded=0;orthogonalLoop=1;jettySize=auto;html=1;" edge="1" parent="1" source="qSePwaMuYVDX3gsaCFXp-21" target="bdCGcQ_N1s8SZvGKcMqw-1">
          <mxGeometry relative="1" as="geometry">
            <Array as="points">
              <mxPoint x="1080" y="325" />
            </Array>
          </mxGeometry>
        </mxCell>
        <mxCell id="qSePwaMuYVDX3gsaCFXp-21" value="&lt;b&gt;class SalePoint&lt;/b&gt;&lt;div&gt;(х&lt;span style=&quot;white-space-collapse: preserve; background-color: transparent; color: light-dark(rgb(0, 0, 0), rgb(255, 255, 255));&quot;&gt;ранит товары, их кол-во, работника, покупателей и покупки)&lt;/span&gt;&lt;br&gt;&lt;/div&gt;&lt;div&gt;Операции - продажа и возврат товаров, закрытие пункта продаж&lt;/div&gt;" style="rounded=0;whiteSpace=wrap;html=1;" vertex="1" parent="1">
          <mxGeometry x="1000" y="720" width="280" height="80" as="geometry" />
        </mxCell>
        <mxCell id="qSePwaMuYVDX3gsaCFXp-22" value="&lt;div style=&quot;background-color:#ffffff;color:#080808&quot;&gt;&lt;pre style=&quot;font-family:&#39;JetBrains Mono&#39;,monospace;font-size:9,8pt;&quot;&gt;&lt;span style=&quot;color:#0033b3;&quot;&gt;int &lt;/span&gt;&lt;span style=&quot;color:#871094;&quot;&gt;id&lt;/span&gt;;&lt;br&gt;&lt;span style=&quot;color:#000000;&quot;&gt;Map&lt;/span&gt;&amp;lt;&lt;span style=&quot;color:#000000;&quot;&gt;Product&lt;/span&gt;, &lt;span style=&quot;color:#000000;&quot;&gt;Integer&lt;/span&gt;&amp;gt; &lt;span style=&quot;color:#871094;&quot;&gt;products&lt;/span&gt;;&lt;span style=&quot;color:#8c8c8c;font-style:italic;&quot;&gt;&lt;br&gt;&lt;/span&gt;&lt;span style=&quot;color:#000000;&quot;&gt;Worker &lt;/span&gt;&lt;span style=&quot;color:#871094;&quot;&gt;worker&lt;/span&gt;;&lt;br&gt;&lt;span style=&quot;color:#0033b3;&quot;&gt;double &lt;/span&gt;&lt;span style=&quot;color:#871094;&quot;&gt;income&lt;/span&gt;;&lt;br&gt;&lt;span style=&quot;color:#0033b3;&quot;&gt;boolean &lt;/span&gt;&lt;span style=&quot;color:#871094;&quot;&gt;isOpen&lt;/span&gt;;&lt;br&gt;&lt;span style=&quot;color:#000000;&quot;&gt;List&lt;/span&gt;&amp;lt;&lt;span style=&quot;color:#000000;&quot;&gt;Buyer&lt;/span&gt;&amp;gt; &lt;span style=&quot;color:#871094;&quot;&gt;buyers &lt;/span&gt;= &lt;span style=&quot;color:#0033b3;&quot;&gt;new &lt;/span&gt;ArrayList&amp;lt;&amp;gt;();&lt;/pre&gt;&lt;/div&gt;" style="rounded=0;whiteSpace=wrap;html=1;align=left;" vertex="1" parent="1">
          <mxGeometry x="1000" y="800" width="280" height="100" as="geometry" />
        </mxCell>
        <mxCell id="qSePwaMuYVDX3gsaCFXp-23" value="&lt;font style=&quot;font-size: 10px;&quot;&gt;&amp;nbsp; &amp;nbsp; &amp;nbsp; &amp;nbsp; &amp;nbsp; &amp;nbsp; &amp;nbsp; &amp;nbsp; &amp;nbsp; &amp;nbsp; &amp;nbsp; &amp;nbsp; &amp;nbsp; &amp;nbsp; &amp;nbsp; &amp;nbsp; &amp;nbsp; &amp;nbsp; &amp;nbsp; &amp;nbsp; &amp;nbsp; &amp;nbsp;Методы:&lt;/font&gt;&lt;div&gt;&lt;div style=&quot;background-color:#ffffff;color:#080808&quot;&gt;&lt;pre style=&quot;font-family: &amp;quot;JetBrains Mono&amp;quot;, monospace;&quot;&gt;&lt;span style=&quot;font-size: 10px; white-space: normal;&quot;&gt;&lt;/span&gt;&lt;/pre&gt;&lt;/div&gt;&lt;/div&gt;&lt;div&gt;&lt;font style=&quot;font-size: 10px;&quot;&gt;&lt;div style=&quot;background-color: rgb(255, 255, 255);&quot;&gt;&lt;pre style=&quot;font-family: &amp;quot;JetBrains Mono&amp;quot;, monospace;&quot;&gt;&lt;span style=&quot;color: rgb(0, 51, 179);&quot;&gt;void &lt;/span&gt;&lt;span style=&quot;color: rgb(0, 98, 122);&quot;&gt;sellProduct&lt;/span&gt;&lt;font color=&quot;#080808&quot;&gt;(&lt;/font&gt;)-продажа товара&lt;span style=&quot;color: rgb(140, 140, 140); font-style: italic;&quot;&gt;&lt;br&gt;&lt;/span&gt;&lt;span style=&quot;color: rgb(0, 51, 179);&quot;&gt;public void &lt;/span&gt;&lt;span style=&quot;color: rgb(0, 98, 122);&quot;&gt;returnProduct&lt;/span&gt;&lt;font color=&quot;#080808&quot;&gt;(&lt;/font&gt;&lt;span style=&quot;color: rgb(0, 0, 0);&quot;&gt;)-возврат товара&lt;/span&gt;&lt;font color=&quot;#080808&quot;&gt;&lt;br&gt;&lt;/font&gt;&lt;span style=&quot;color: rgb(0, 51, 179);&quot;&gt;public void &lt;/span&gt;&lt;span style=&quot;color: rgb(0, 98, 122);&quot;&gt;closePoint&lt;/span&gt;&lt;font color=&quot;#080808&quot;&gt;()- закрытие пункта продаж&lt;/font&gt;&lt;/pre&gt;&lt;/div&gt;&lt;/font&gt;&lt;/div&gt;" style="rounded=0;whiteSpace=wrap;html=1;align=left;" vertex="1" parent="1">
          <mxGeometry x="1000" y="900" width="280" height="75" as="geometry" />
        </mxCell>
        <mxCell id="qSePwaMuYVDX3gsaCFXp-15" value="&lt;pre style=&quot;font-family: &amp;quot;JetBrains Mono&amp;quot;, monospace;&quot;&gt;&lt;div style=&quot;background-color:#ffffff;color:#080808&quot;&gt;&lt;pre style=&quot;font-family:&#39;JetBrains Mono&#39;,monospace;font-size:9,8pt;&quot;&gt;&lt;pre style=&quot;font-family:&#39;JetBrains Mono&#39;,monospace;font-size:9,8pt;&quot;&gt;&lt;div&gt;&lt;pre style=&quot;font-family:&#39;JetBrains Mono&#39;,monospace;font-size:9,8pt;&quot;&gt;&lt;span style=&quot;color:#0033b3;&quot;&gt;int &lt;/span&gt;&lt;span style=&quot;color:#871094;&quot;&gt;id&lt;/span&gt;;&lt;br&gt;&lt;span style=&quot;color:#000000;&quot;&gt;String &lt;/span&gt;&lt;span style=&quot;color:#871094;&quot;&gt;name&lt;/span&gt;;&lt;br&gt;&lt;span style=&quot;color:#0033b3;&quot;&gt;double &lt;/span&gt;&lt;span style=&quot;color:#871094;&quot;&gt;price&lt;/span&gt;;&lt;/pre&gt;&lt;/div&gt;&lt;/pre&gt;&lt;/pre&gt;&lt;/div&gt;&lt;/pre&gt;" style="rounded=0;whiteSpace=wrap;html=1;align=left;" vertex="1" parent="1">
          <mxGeometry x="540" y="860" width="166" height="60" as="geometry" />
        </mxCell>
        <mxCell id="qSePwaMuYVDX3gsaCFXp-33" style="edgeStyle=orthogonalEdgeStyle;rounded=0;orthogonalLoop=1;jettySize=auto;html=1;entryX=0;entryY=0.75;entryDx=0;entryDy=0;" edge="1" parent="1" source="qSePwaMuYVDX3gsaCFXp-29" target="qSePwaMuYVDX3gsaCFXp-21">
          <mxGeometry relative="1" as="geometry">
            <Array as="points">
              <mxPoint x="930" y="780" />
            </Array>
          </mxGeometry>
        </mxCell>
        <mxCell id="qSePwaMuYVDX3gsaCFXp-39" style="edgeStyle=orthogonalEdgeStyle;rounded=0;orthogonalLoop=1;jettySize=auto;html=1;entryX=1;entryY=0.25;entryDx=0;entryDy=0;" edge="1" parent="1" source="qSePwaMuYVDX3gsaCFXp-29" target="bdCGcQ_N1s8SZvGKcMqw-1">
          <mxGeometry relative="1" as="geometry">
            <Array as="points">
              <mxPoint x="1070" y="1100" />
              <mxPoint x="1070" y="1320" />
              <mxPoint x="1620" y="1320" />
              <mxPoint x="1620" y="303" />
            </Array>
          </mxGeometry>
        </mxCell>
        <mxCell id="qSePwaMuYVDX3gsaCFXp-29" value="&lt;b&gt;class Buyer&lt;/b&gt;&lt;div&gt;(х&lt;span style=&quot;white-space-collapse: preserve; background-color: transparent; color: light-dark(rgb(0, 0, 0), rgb(255, 255, 255));&quot;&gt;ранит данные о покупателе и его покупках)&lt;/span&gt;&lt;br&gt;&lt;/div&gt;&lt;div&gt;Операции - добавление покупки&lt;/div&gt;" style="rounded=0;whiteSpace=wrap;html=1;" vertex="1" parent="1">
          <mxGeometry x="690" y="1070" width="300" height="60" as="geometry" />
        </mxCell>
        <mxCell id="qSePwaMuYVDX3gsaCFXp-30" value="&lt;div style=&quot;background-color:#ffffff;color:#080808&quot;&gt;&lt;pre style=&quot;font-family:&#39;JetBrains Mono&#39;,monospace;font-size:9,8pt;&quot;&gt;&lt;div&gt;&lt;pre style=&quot;font-family:&#39;JetBrains Mono&#39;,monospace;font-size:9,8pt;&quot;&gt;&lt;span style=&quot;color:#0033b3;&quot;&gt;int &lt;/span&gt;&lt;span style=&quot;color:#871094;&quot;&gt;id&lt;/span&gt;;&lt;br&gt;&lt;span style=&quot;color:#000000;&quot;&gt;String &lt;/span&gt;&lt;span style=&quot;color:#871094;&quot;&gt;name&lt;/span&gt;;&lt;br&gt;&lt;span style=&quot;color:#000000;&quot;&gt;List&lt;/span&gt;&amp;lt;&lt;span style=&quot;color:#000000;&quot;&gt;Purchase&lt;/span&gt;&amp;gt; &lt;span style=&quot;color:#871094;&quot;&gt;purchases &lt;/span&gt;= &lt;span style=&quot;color:#0033b3;&quot;&gt;new &lt;/span&gt;ArrayList&amp;lt;&amp;gt;();&lt;/pre&gt;&lt;/div&gt;&lt;/pre&gt;&lt;/div&gt;" style="rounded=0;whiteSpace=wrap;html=1;align=left;" vertex="1" parent="1">
          <mxGeometry x="690" y="1130" width="300" height="70" as="geometry" />
        </mxCell>
        <mxCell id="qSePwaMuYVDX3gsaCFXp-31" value="&lt;font style=&quot;font-size: 10px;&quot;&gt;&amp;nbsp; &amp;nbsp; &amp;nbsp; &amp;nbsp; &amp;nbsp; &amp;nbsp; &amp;nbsp; &amp;nbsp; &amp;nbsp; &amp;nbsp; &amp;nbsp; &amp;nbsp; &amp;nbsp; &amp;nbsp; &amp;nbsp; &amp;nbsp; &amp;nbsp; &amp;nbsp; &amp;nbsp; &amp;nbsp; &amp;nbsp; &amp;nbsp;Методы:&lt;/font&gt;&lt;div&gt;&lt;div style=&quot;background-color:#ffffff;color:#080808&quot;&gt;&lt;pre style=&quot;font-family: &amp;quot;JetBrains Mono&amp;quot;, monospace;&quot;&gt;&lt;span style=&quot;font-size: 10px; white-space: normal;&quot;&gt;&lt;/span&gt;&lt;/pre&gt;&lt;/div&gt;&lt;/div&gt;&lt;div&gt;&lt;font style=&quot;font-size: 10px;&quot;&gt;&lt;div style=&quot;background-color: rgb(255, 255, 255);&quot;&gt;&lt;pre style=&quot;font-family: &amp;quot;JetBrains Mono&amp;quot;, monospace;&quot;&gt;&lt;div style=&quot;color: rgb(8, 8, 8);&quot;&gt;&lt;pre style=&quot;font-family:&#39;JetBrains Mono&#39;,monospace;font-size:9,8pt;&quot;&gt;&lt;span style=&quot;color:#0033b3;&quot;&gt;void &lt;/span&gt;&lt;span style=&quot;color:#00627a;&quot;&gt;addPurchase&lt;/span&gt;()-добавляет покупку в список покупок&lt;/pre&gt;&lt;/div&gt;&lt;/pre&gt;&lt;/div&gt;&lt;/font&gt;&lt;/div&gt;" style="rounded=0;whiteSpace=wrap;html=1;align=left;" vertex="1" parent="1">
          <mxGeometry x="690" y="1200" width="300" height="60" as="geometry" />
        </mxCell>
        <mxCell id="qSePwaMuYVDX3gsaCFXp-37" style="edgeStyle=orthogonalEdgeStyle;rounded=0;orthogonalLoop=1;jettySize=auto;html=1;entryX=1;entryY=0.5;entryDx=0;entryDy=0;" edge="1" parent="1" source="qSePwaMuYVDX3gsaCFXp-34" target="qSePwaMuYVDX3gsaCFXp-21">
          <mxGeometry relative="1" as="geometry" />
        </mxCell>
        <mxCell id="qSePwaMuYVDX3gsaCFXp-38" style="edgeStyle=orthogonalEdgeStyle;rounded=0;orthogonalLoop=1;jettySize=auto;html=1;" edge="1" parent="1" source="qSePwaMuYVDX3gsaCFXp-34" target="qSePwaMuYVDX3gsaCFXp-29">
          <mxGeometry relative="1" as="geometry">
            <mxPoint x="960" y="1073" as="targetPoint" />
            <Array as="points">
              <mxPoint x="1320" y="1020" />
              <mxPoint x="960" y="1020" />
            </Array>
          </mxGeometry>
        </mxCell>
        <mxCell id="qSePwaMuYVDX3gsaCFXp-34" value="&lt;b&gt;class Purchase&lt;/b&gt;&lt;div&gt;(х&lt;span style=&quot;white-space-collapse: preserve; background-color: transparent; color: light-dark(rgb(0, 0, 0), rgb(255, 255, 255));&quot;&gt;ранит инф-цию о покупке)&lt;/span&gt;&lt;br&gt;&lt;/div&gt;&lt;div&gt;Операции - предоставляет данные покупки&lt;/div&gt;" style="rounded=0;whiteSpace=wrap;html=1;" vertex="1" parent="1">
          <mxGeometry x="1180" y="1090" width="380" height="60" as="geometry" />
        </mxCell>
        <mxCell id="qSePwaMuYVDX3gsaCFXp-35" value="&lt;div style=&quot;background-color:#ffffff;color:#080808&quot;&gt;&lt;pre style=&quot;font-family:&#39;JetBrains Mono&#39;,monospace;font-size:9,8pt;&quot;&gt;&lt;pre style=&quot;font-family:&#39;JetBrains Mono&#39;,monospace;font-size:9,8pt;&quot;&gt;&lt;div&gt;&lt;pre style=&quot;font-family:&#39;JetBrains Mono&#39;,monospace;font-size:9,8pt;&quot;&gt;&lt;span style=&quot;color:#000000;&quot;&gt;Product &lt;/span&gt;&lt;span style=&quot;color:#871094;&quot;&gt;product&lt;/span&gt;;&lt;br&gt;&lt;span style=&quot;color:#0033b3;&quot;&gt;int &lt;/span&gt;&lt;span style=&quot;color:#871094;&quot;&gt;quantity&lt;/span&gt;;&lt;br&gt;&lt;span style=&quot;color:#000000;&quot;&gt;Date &lt;/span&gt;&lt;span style=&quot;color:#871094;&quot;&gt;purchaseDate&lt;/span&gt;;&lt;br&gt;&lt;span style=&quot;color:#0033b3;&quot;&gt;boolean &lt;/span&gt;&lt;span style=&quot;color:#871094;&quot;&gt;isReturned&lt;/span&gt;;&lt;/pre&gt;&lt;/div&gt;&lt;/pre&gt;&lt;/pre&gt;&lt;/div&gt;" style="rounded=0;whiteSpace=wrap;html=1;align=left;" vertex="1" parent="1">
          <mxGeometry x="1180" y="1150" width="380" height="70" as="geometry" />
        </mxCell>
        <mxCell id="qSePwaMuYVDX3gsaCFXp-36" value="&lt;font style=&quot;font-size: 10px;&quot;&gt;&amp;nbsp; &amp;nbsp; &amp;nbsp; &amp;nbsp; &amp;nbsp; &amp;nbsp; &amp;nbsp; &amp;nbsp; &amp;nbsp; &amp;nbsp; &amp;nbsp; &amp;nbsp; &amp;nbsp; &amp;nbsp; &amp;nbsp; &amp;nbsp; &amp;nbsp; &amp;nbsp; &amp;nbsp; &amp;nbsp; &amp;nbsp; &amp;nbsp; &amp;nbsp; &amp;nbsp; &amp;nbsp; &amp;nbsp; &amp;nbsp; &amp;nbsp; &amp;nbsp; &amp;nbsp; &amp;nbsp; &amp;nbsp; Методы:&lt;/font&gt;&lt;div&gt;&lt;div style=&quot;background-color:#ffffff;color:#080808&quot;&gt;&lt;pre style=&quot;font-family: &amp;quot;JetBrains Mono&amp;quot;, monospace;&quot;&gt;&lt;span style=&quot;font-size: 10px; white-space: normal;&quot;&gt;&lt;/span&gt;&lt;/pre&gt;&lt;/div&gt;&lt;/div&gt;&lt;div&gt;&lt;font style=&quot;font-size: 10px;&quot;&gt;&lt;div style=&quot;background-color: rgb(255, 255, 255);&quot;&gt;&lt;pre style=&quot;font-family: &amp;quot;JetBrains Mono&amp;quot;, monospace;&quot;&gt;&lt;div style=&quot;color: rgb(8, 8, 8);&quot;&gt;&lt;pre style=&quot;font-family:&#39;JetBrains Mono&#39;,monospace;font-size:9,8pt;&quot;&gt;&lt;div&gt;&lt;pre style=&quot;font-family:&#39;JetBrains Mono&#39;,monospace;font-size:9,8pt;&quot;&gt;&lt;span style=&quot;color:#0033b3;&quot;&gt;boolean &lt;/span&gt;&lt;span style=&quot;color:#00627a;&quot;&gt;isReturned&lt;/span&gt;()-возвращает статус покупки (вернули/ не вернули)&lt;/pre&gt;&lt;/div&gt;&lt;/pre&gt;&lt;/div&gt;&lt;/pre&gt;&lt;/div&gt;&lt;/font&gt;&lt;/div&gt;" style="rounded=0;whiteSpace=wrap;html=1;align=left;" vertex="1" parent="1">
          <mxGeometry x="1180" y="1220" width="380" height="60" as="geometry" />
        </mxCell>
      </root>
    </mxGraphModel>
  </diagram>
</mxfile>
